<svg xmlns="http://www.w3.org/2000/svg" version="1.0" width="349.000000pt" height="86.000000pt" viewBox="0 0 349.000000 86.000000" preserveAspectRatio="xMidYMid meet">

<g transform="translate(0.000000,86.000000) scale(0.100000,-0.100000)" fill="#ffffff" stroke="none">
<path d="M694 789 c-88 -43 -160 -147 -126 -181 14 -14 70 5 121 43 50 35 91 111 75 136 -15 25 -25 25 -70 2z m6 -58 c0 -31 -45 -95 -61 -85 -17 10 -9 53 17 83 32 39 44 39 44 2z" fill="#ffffff"/>
<path d="M818 723 c-11 -14 -13 -34 -9 -83 l6 -65 18 45 c18 48 23 120 9 120 -5 0 -16 -8 -24 -17z" fill="#ffffff"/>
<path d="M2151 703 c-27 -25 -43 -49 -46 -70 -6 -40 8 -43 24 -5 7 15 24 41 39 57 25 28 27 28 30 9 3 -19 -6 -65 -23 -121 -10 -33 4 -28 50 15 22 20 55 50 73 65 27 21 30 27 15 27 -11 0 -28 -7 -39 -15 -33 -25 -44 -19 -33 17 14 50 11 58 -20 58 -19 0 -42 -12 -70 -37z" fill="#ffffff"/>
<path d="M2763 704 c-19 -16 -21 -25 -14 -54 4 -19 4 -50 0 -67 -8 -40 0 -41 31 -8 14 14 48 44 77 67 30 22 51 43 48 46 -2 3 -28 -7 -56 -21 -28 -15 -52 -27 -54 -27 -2 0 -5 19 -7 41 l-3 41 -22 -18z" fill="#ffffff"/>
<path d="M747 662 c-12 -13 -14 -29 -8 -72 6 -50 8 -53 19 -33 17 30 27 109 15 116 -6 4 -17 -1 -26 -11z" fill="#ffffff"/>
<path d="M1528 641 c-47 -30 -83 -72 -76 -90 1 -6 32 14 68 44 35 30 68 55 72 55 4 0 8 5 8 10 0 17 -25 11 -72 -19z" fill="#ffffff"/>
<path d="M184 622 c-54 -19 -144 -72 -166 -99 -12 -14 -9 -15 23 -9 41 7 114 -15 224 -68 101 -49 168 -66 257 -66 74 0 79 -1 90 -25 9 -20 8 -34 -5 -67 -9 -23 -15 -44 -12 -46 12 -13 46 36 61 87 9 31 19 64 23 73 5 14 33 5 201 -69 216 -94 269 -105 325 -69 32 21 23 32 -15 18 -30 -11 -86 8 -270 91 -80 36 -215 96 -300 134 -124 56 -156 74 -158 91 -3 17 -8 20 -31 16 -15 -3 -49 1 -75 10 -60 20 -108 20 -172 -2z m164 -50 c20 -10 41 -28 47 -40 7 -17 18 -21 50 -21 39 1 186 -59 200 -80 3 -5 -20 -15 -51 -21 -71 -15 -105 -7 -267 64 -67 30 -139 59 -160 66 -45 14 -44 29 4 47 44 16 130 10 177 -15z" fill="#ffffff"/>
<path d="M954 611 c-51 -18 -157 -81 -168 -99 -3 -5 18 -9 52 -8 40 1 70 -6 102 -21 239 -115 330 -134 439 -90 l62 25 181 -79 c244 -106 271 -114 318 -100 21 6 42 17 48 24 8 10 -2 12 -46 13 -51 1 -86 14 -322 121 -487 221 -501 226 -560 230 -37 2 -72 -3 -106 -16z m164 -44 c137 -57 282 -131 273 -140 -17 -17 -75 -23 -131 -15 -64 10 -86 17 -196 69 -45 21 -102 44 -128 51 -25 7 -46 15 -46 18 0 12 86 39 128 39 23 1 68 -10 100 -22z" fill="#ffffff"/>
<path d="M1699 606 c-67 -27 -119 -58 -144 -86 -18 -20 -18 -20 81 -20 123 0 158 -10 206 -57 43 -41 50 -33 15 18 -29 44 -105 81 -169 82 -26 0 -48 2 -48 4 0 2 21 13 46 23 82 36 123 28 303 -54 89 -40 164 -76 167 -79 14 -14 -66 -40 -145 -46 l-86 -7 76 -36 c161 -76 341 -118 506 -118 129 0 252 24 232 45 -3 2 -27 -3 -54 -11 -68 -21 -263 -13 -360 15 -84 24 -235 83 -235 92 0 3 27 14 60 24 51 15 108 50 98 60 -2 2 -90 42 -195 89 -219 98 -253 104 -354 62z" fill="#ffffff"/>
<path d="M2440 607 c-68 -23 -174 -92 -165 -107 3 -5 49 -8 103 -7 112 2 164 -15 197 -63 24 -36 37 -30 23 11 -15 43 -69 82 -140 100 l-63 16 39 18 c31 13 54 15 103 10 50 -5 63 -4 63 7 0 43 -62 49 -160 15z" fill="#ffffff"/>
<path d="M2894 539 c-17 -5 -37 -16 -44 -24 -11 -14 -7 -15 41 -10 47 6 62 3 109 -22 38 -19 56 -35 58 -50 3 -18 7 -21 25 -14 30 11 37 9 157 -39 125 -51 166 -58 208 -36 18 9 32 20 32 24 0 4 -24 7 -53 7 -71 1 -300 102 -305 135 -3 17 -8 21 -27 16 -13 -3 -52 1 -87 9 -71 17 -71 17 -114 4z" fill="#ffffff"/>
</g>
</svg>